<mxfile host="app.diagrams.net" modified="2024-06-19T06:00:27.183Z" agent="Mozilla/5.0 (Windows NT 10.0; Win64; x64) AppleWebKit/537.36 (KHTML, like Gecko) Chrome/126.0.0.0 Safari/537.36" etag="9c_2-9Dn0TTGK7A4u71l" version="24.3.1" type="github">
  <diagram name="Page-1" id="e7e014a7-5840-1c2e-5031-d8a46d1fe8dd">
    <mxGraphModel dx="1322" dy="627" grid="1" gridSize="10" guides="1" tooltips="1" connect="1" arrows="1" fold="1" page="1" pageScale="1" pageWidth="1169" pageHeight="826" background="none" math="0" shadow="0">
      <root>
        <mxCell id="0" />
        <mxCell id="1" parent="0" />
        <mxCell id="EwxZ_xQYVL66pt0RI6ai-41" value="SIA page" style="shape=umlLifeline;perimeter=lifelinePerimeter;whiteSpace=wrap;html=1;container=1;dropTarget=0;collapsible=0;recursiveResize=0;outlineConnect=0;portConstraint=eastwest;newEdgeStyle={&quot;curved&quot;:0,&quot;rounded&quot;:0};fillColor=#CC99FF;" vertex="1" parent="1">
          <mxGeometry x="210" y="123" width="100" height="550" as="geometry" />
        </mxCell>
        <mxCell id="EwxZ_xQYVL66pt0RI6ai-47" value="" style="html=1;points=[[0,0,0,0,5],[0,1,0,0,-5],[1,0,0,0,5],[1,1,0,0,-5]];perimeter=orthogonalPerimeter;outlineConnect=0;targetShapes=umlLifeline;portConstraint=eastwest;newEdgeStyle={&quot;curved&quot;:0,&quot;rounded&quot;:0};" vertex="1" parent="EwxZ_xQYVL66pt0RI6ai-41">
          <mxGeometry x="45" y="114" width="10" height="406" as="geometry" />
        </mxCell>
        <mxCell id="EwxZ_xQYVL66pt0RI6ai-42" value="Commodity Svc" style="shape=umlLifeline;perimeter=lifelinePerimeter;whiteSpace=wrap;html=1;container=1;dropTarget=0;collapsible=0;recursiveResize=0;outlineConnect=0;portConstraint=eastwest;newEdgeStyle={&quot;curved&quot;:0,&quot;rounded&quot;:0};fillColor=#00FF80;" vertex="1" parent="1">
          <mxGeometry x="641" y="123" width="100" height="560" as="geometry" />
        </mxCell>
        <mxCell id="EwxZ_xQYVL66pt0RI6ai-45" value="" style="html=1;points=[[0,0,0,0,5],[0,1,0,0,-5],[1,0,0,0,5],[1,1,0,0,-5]];perimeter=orthogonalPerimeter;outlineConnect=0;targetShapes=umlLifeline;portConstraint=eastwest;newEdgeStyle={&quot;curved&quot;:0,&quot;rounded&quot;:0};" vertex="1" parent="EwxZ_xQYVL66pt0RI6ai-42">
          <mxGeometry x="45" y="110" width="10" height="120" as="geometry" />
        </mxCell>
        <mxCell id="EwxZ_xQYVL66pt0RI6ai-46" value="Save commodity one by one" style="html=1;align=left;spacingLeft=2;endArrow=block;rounded=0;edgeStyle=orthogonalEdgeStyle;curved=0;rounded=0;" edge="1" target="EwxZ_xQYVL66pt0RI6ai-45" parent="EwxZ_xQYVL66pt0RI6ai-42" source="EwxZ_xQYVL66pt0RI6ai-45">
          <mxGeometry relative="1" as="geometry">
            <mxPoint x="80" y="140" as="sourcePoint" />
            <Array as="points">
              <mxPoint x="120" y="160" />
              <mxPoint x="120" y="180" />
            </Array>
            <mxPoint as="offset" />
          </mxGeometry>
        </mxCell>
        <mxCell id="EwxZ_xQYVL66pt0RI6ai-43" value="PO WCF Svc" style="shape=umlLifeline;perimeter=lifelinePerimeter;whiteSpace=wrap;html=1;container=1;dropTarget=0;collapsible=0;recursiveResize=0;outlineConnect=0;portConstraint=eastwest;newEdgeStyle={&quot;curved&quot;:0,&quot;rounded&quot;:0};fillColor=#00CCCC;" vertex="1" parent="1">
          <mxGeometry x="870" y="120" width="100" height="560" as="geometry" />
        </mxCell>
        <mxCell id="EwxZ_xQYVL66pt0RI6ai-51" value="" style="html=1;points=[[0,0,0,0,5],[0,1,0,0,-5],[1,0,0,0,5],[1,1,0,0,-5]];perimeter=orthogonalPerimeter;outlineConnect=0;targetShapes=umlLifeline;portConstraint=eastwest;newEdgeStyle={&quot;curved&quot;:0,&quot;rounded&quot;:0};" vertex="1" parent="EwxZ_xQYVL66pt0RI6ai-43">
          <mxGeometry x="45" y="275" width="10" height="195" as="geometry" />
        </mxCell>
        <mxCell id="EwxZ_xQYVL66pt0RI6ai-63" value="Save PO data" style="html=1;align=left;spacingLeft=2;endArrow=block;rounded=0;edgeStyle=orthogonalEdgeStyle;curved=0;rounded=0;" edge="1" target="EwxZ_xQYVL66pt0RI6ai-51" parent="EwxZ_xQYVL66pt0RI6ai-43">
          <mxGeometry relative="1" as="geometry">
            <mxPoint x="55" y="343" as="sourcePoint" />
            <Array as="points">
              <mxPoint x="85" y="343" />
              <mxPoint x="85" y="373" />
            </Array>
            <mxPoint x="60" y="373" as="targetPoint" />
          </mxGeometry>
        </mxCell>
        <mxCell id="EwxZ_xQYVL66pt0RI6ai-44" value="Save Data" style="html=1;verticalAlign=bottom;endArrow=block;curved=0;rounded=0;exitX=1;exitY=0;exitDx=0;exitDy=5;exitPerimeter=0;" edge="1" parent="1" target="EwxZ_xQYVL66pt0RI6ai-49">
          <mxGeometry width="80" relative="1" as="geometry">
            <mxPoint x="265" y="249" as="sourcePoint" />
            <mxPoint x="465" y="245" as="targetPoint" />
          </mxGeometry>
        </mxCell>
        <mxCell id="EwxZ_xQYVL66pt0RI6ai-48" value="SIA UI Svc" style="shape=umlLifeline;perimeter=lifelinePerimeter;whiteSpace=wrap;html=1;container=1;dropTarget=0;collapsible=0;recursiveResize=0;outlineConnect=0;portConstraint=eastwest;newEdgeStyle={&quot;curved&quot;:0,&quot;rounded&quot;:0};fillColor=#3399FF;" vertex="1" parent="1">
          <mxGeometry x="420" y="123" width="100" height="560" as="geometry" />
        </mxCell>
        <mxCell id="EwxZ_xQYVL66pt0RI6ai-49" value="" style="html=1;points=[[0,0,0,0,5],[0,1,0,0,-5],[1,0,0,0,5],[1,1,0,0,-5]];perimeter=orthogonalPerimeter;outlineConnect=0;targetShapes=umlLifeline;portConstraint=eastwest;newEdgeStyle={&quot;curved&quot;:0,&quot;rounded&quot;:0};" vertex="1" parent="EwxZ_xQYVL66pt0RI6ai-48">
          <mxGeometry x="45" y="110" width="10" height="420" as="geometry" />
        </mxCell>
        <mxCell id="EwxZ_xQYVL66pt0RI6ai-50" value="" style="html=1;align=left;spacingLeft=2;endArrow=block;rounded=0;edgeStyle=orthogonalEdgeStyle;curved=0;rounded=0;" edge="1" parent="1" target="EwxZ_xQYVL66pt0RI6ai-42">
          <mxGeometry x="0.3203" y="20" relative="1" as="geometry">
            <mxPoint x="475" y="265" as="sourcePoint" />
            <Array as="points">
              <mxPoint x="475" y="266" />
            </Array>
            <mxPoint x="650" y="265" as="targetPoint" />
            <mxPoint as="offset" />
          </mxGeometry>
        </mxCell>
        <mxCell id="EwxZ_xQYVL66pt0RI6ai-66" value="Save commodities" style="edgeLabel;html=1;align=center;verticalAlign=middle;resizable=0;points=[];" vertex="1" connectable="0" parent="EwxZ_xQYVL66pt0RI6ai-50">
          <mxGeometry x="-0.28" y="-1" relative="1" as="geometry">
            <mxPoint x="22" as="offset" />
          </mxGeometry>
        </mxCell>
        <mxCell id="EwxZ_xQYVL66pt0RI6ai-52" style="edgeStyle=orthogonalEdgeStyle;rounded=0;orthogonalLoop=1;jettySize=auto;html=1;curved=0;" edge="1" parent="1" source="EwxZ_xQYVL66pt0RI6ai-45" target="EwxZ_xQYVL66pt0RI6ai-49">
          <mxGeometry relative="1" as="geometry">
            <mxPoint x="480" y="340" as="targetPoint" />
            <Array as="points">
              <mxPoint x="630" y="330" />
              <mxPoint x="630" y="330" />
            </Array>
          </mxGeometry>
        </mxCell>
        <mxCell id="EwxZ_xQYVL66pt0RI6ai-53" value="Return save result" style="edgeLabel;html=1;align=center;verticalAlign=middle;resizable=0;points=[];" vertex="1" connectable="0" parent="EwxZ_xQYVL66pt0RI6ai-52">
          <mxGeometry x="-0.062" y="1" relative="1" as="geometry">
            <mxPoint as="offset" />
          </mxGeometry>
        </mxCell>
        <mxCell id="EwxZ_xQYVL66pt0RI6ai-54" style="edgeStyle=orthogonalEdgeStyle;rounded=0;orthogonalLoop=1;jettySize=auto;html=1;curved=0;" edge="1" parent="1">
          <mxGeometry relative="1" as="geometry">
            <mxPoint x="475" y="417" as="sourcePoint" />
            <mxPoint x="915" y="417" as="targetPoint" />
            <Array as="points">
              <mxPoint x="580" y="417" />
              <mxPoint x="580" y="417" />
            </Array>
          </mxGeometry>
        </mxCell>
        <mxCell id="EwxZ_xQYVL66pt0RI6ai-55" value="Save PO draw&amp;nbsp;" style="edgeLabel;html=1;align=center;verticalAlign=middle;resizable=0;points=[];" vertex="1" connectable="0" parent="EwxZ_xQYVL66pt0RI6ai-54">
          <mxGeometry x="0.0773" y="1" relative="1" as="geometry">
            <mxPoint x="31" as="offset" />
          </mxGeometry>
        </mxCell>
        <mxCell id="EwxZ_xQYVL66pt0RI6ai-57" style="edgeStyle=orthogonalEdgeStyle;rounded=0;orthogonalLoop=1;jettySize=auto;html=1;curved=0;" edge="1" parent="1">
          <mxGeometry relative="1" as="geometry">
            <mxPoint x="915" y="555" as="sourcePoint" />
            <mxPoint x="469.5" y="555" as="targetPoint" />
            <Array as="points">
              <mxPoint x="800" y="555" />
              <mxPoint x="800" y="555" />
            </Array>
          </mxGeometry>
        </mxCell>
        <mxCell id="EwxZ_xQYVL66pt0RI6ai-67" value="&lt;span style=&quot;font-size: 12px; background-color: rgb(251, 251, 251);&quot;&gt;Return save result&lt;/span&gt;" style="edgeLabel;html=1;align=center;verticalAlign=middle;resizable=0;points=[];" vertex="1" connectable="0" parent="EwxZ_xQYVL66pt0RI6ai-57">
          <mxGeometry x="-0.0463" relative="1" as="geometry">
            <mxPoint x="44" as="offset" />
          </mxGeometry>
        </mxCell>
        <mxCell id="EwxZ_xQYVL66pt0RI6ai-58" style="edgeStyle=orthogonalEdgeStyle;rounded=0;orthogonalLoop=1;jettySize=auto;html=1;curved=0;" edge="1" parent="1">
          <mxGeometry relative="1" as="geometry">
            <mxPoint x="465" y="595" as="sourcePoint" />
            <mxPoint x="270" y="595" as="targetPoint" />
            <Array as="points">
              <mxPoint x="320" y="595" />
              <mxPoint x="320" y="595" />
            </Array>
          </mxGeometry>
        </mxCell>
        <mxCell id="EwxZ_xQYVL66pt0RI6ai-61" value="Save result" style="edgeLabel;html=1;align=center;verticalAlign=middle;resizable=0;points=[];" vertex="1" connectable="0" parent="EwxZ_xQYVL66pt0RI6ai-58">
          <mxGeometry x="0.2068" y="3" relative="1" as="geometry">
            <mxPoint x="3" y="-4" as="offset" />
          </mxGeometry>
        </mxCell>
        <mxCell id="EwxZ_xQYVL66pt0RI6ai-70" style="edgeStyle=orthogonalEdgeStyle;rounded=0;orthogonalLoop=1;jettySize=auto;html=1;fillColor=#FF3333;strokeColor=#FF3333;" edge="1" parent="1" source="EwxZ_xQYVL66pt0RI6ai-69">
          <mxGeometry relative="1" as="geometry">
            <mxPoint x="820" y="290" as="targetPoint" />
            <Array as="points">
              <mxPoint x="820" y="290" />
            </Array>
          </mxGeometry>
        </mxCell>
        <mxCell id="EwxZ_xQYVL66pt0RI6ai-69" value="&lt;font color=&quot;#ff3333&quot;&gt;&lt;b&gt;Performance bottleneck&lt;/b&gt;&lt;/font&gt;" style="text;html=1;align=center;verticalAlign=middle;whiteSpace=wrap;rounded=0;" vertex="1" parent="1">
          <mxGeometry x="770" y="220" width="100" height="30" as="geometry" />
        </mxCell>
      </root>
    </mxGraphModel>
  </diagram>
</mxfile>
